<?xml version="1.0" encoding="UTF-8" standalone="no"?><svg xmlns:svg="http://www.w3.org/2000/svg" xmlns="http://www.w3.org/2000/svg" version="1.1" style="overflow:visible" viewBox="-250 -250 500 500" height="500px" width="500px"><rect fill-opacity="0" fill="rgb(0,0,0)" height="500" width="500" y="-250" x="-250" /><svg version="1.1" y="-234" x="-251" viewBox="-250 -250 500 500" height="500px" width="500px" style="overflow:visible"><g transform="rotate(0,0,0)" stroke-linejoin="round" fill="#fff"><path stroke-linecap="butt" stroke-linejoin="miter" stroke-width="4" stroke-opacity="1" stroke="rgb(0,0,0)" fill="rgb(255,255,255)" d="m120 0a120 120 0 0 1-120 120a120 120 0 0 1-120-120a120 120 0 0 1 120-120a120 120 0 0 1 120 120z" /></g></svg><svg version="1.1" y="-250" x="-250" viewBox="-250 -250 500 500" height="500px" width="500px" style="overflow:visible"><g transform="rotate(0,0,0)" stroke-linejoin="round" fill="#fff"><path stroke-linecap="butt" stroke-linejoin="round" stroke-width="0" stroke-opacity="0" stroke="rgb(0,0,0)" fill="rgb(14,14,14)" d="m46.92444-46.3218a46.924443 46.859024 0 0 1-46.92444 46.85902a46.924443 46.859024 0 0 1-46.92445-46.85902a46.924443 46.859024 0 0 1 46.92445-46.85903a46.924443 46.859024 0 0 1 46.92444 46.85903z" /><path stroke-linecap="butt" stroke-linejoin="round" stroke-width="0" stroke-opacity="0" stroke="rgb(0,0,0)" fill="rgb(14,14,14)" d="m37.05078 9.2863a66.929623 66.837992 0 0 1-37.05078 11.23047a66.929623 66.837992 0 0 1-37.0625-11.22852c-24.4251 4.76087-42.74805 26.0934-42.74805 51.85352v32.03906h159.6211v-32.03906c0-25.76421-18.32885-47.09911-42.75977-51.85547z" /></g></svg></svg>